<svg xmlns="http://www.w3.org/2000/svg" viewBox="0 0 540 338" width="540" height="338">
  <defs>
    <style>
      text { font-family: system-ui, -apple-system, 'Segoe UI', sans-serif; fill: #2c3e50; }
      .label { font-size: 11px; }
      .title { font-size: 14px; font-weight: 600; }
      .subtitle { font-size: 11px; fill: #7f8c8d; }
      .mono { font-family: 'JetBrains Mono', 'Fira Code', 'Courier New', monospace; }
      .score-big { font-size: 28px; font-weight: 700; }
      .section-head { font-size: 12px; font-weight: 600; fill: #7f8c8d; letter-spacing: 0.05em; }
    </style>
  </defs>
  <title>Platform Void Scores — Dating Applications</title>
  <rect width="540" height="338" fill="#ffffff" rx="8"/>
<rect x="0" y="0" width="540" height="50" fill="#f8f9fa" rx="8"/>
<rect x="0" y="42" width="540" height="8" fill="#f8f9fa"/>
<text x="16" y="22" class="title">The Swipe Machine: Platform Scoring</text>
<text x="16" y="38" class="subtitle">Void Index (12-point scale) — higher = more void properties</text>
<line x1="200" y1="60" x2="200" y2="298" stroke="#ecf0f1" stroke-width="1"/>
<text x="200" y="312" text-anchor="middle" class="subtitle">0</text>
<line x1="290" y1="60" x2="290" y2="298" stroke="#ecf0f1" stroke-width="1"/>
<text x="290" y="312" text-anchor="middle" class="subtitle">4</text>
<line x1="380" y1="60" x2="380" y2="298" stroke="#ecf0f1" stroke-width="1"/>
<text x="380" y="312" text-anchor="middle" class="subtitle">8</text>
<line x1="470" y1="60" x2="470" y2="298" stroke="#ecf0f1" stroke-width="1"/>
<text x="470" y="312" text-anchor="middle" class="subtitle">12</text>
<line x1="290" y1="60" x2="290" y2="298" stroke="#e67e22" stroke-width="1.5" stroke-dasharray="4,3"/>
<text x="192" y="89" text-anchor="end" class="label">Tinder (unlimited swipe)</text>
<rect x="200" y="70" width="270" height="28" fill="#ecf0f1" rx="3"/>
<rect x="200" y="70" width="247" height="28" fill="#c0392b" rx="3"/>
<text x="453" y="89" class="label" font-weight="600" fill="#c0392b">11/12</text>
<text x="192" y="127" text-anchor="end" class="label">Grindr</text>
<rect x="200" y="108" width="270" height="28" fill="#ecf0f1" rx="3"/>
<rect x="200" y="108" width="247" height="28" fill="#c0392b" rx="3"/>
<text x="453" y="127" class="label" font-weight="600" fill="#c0392b">11/12</text>
<text x="192" y="165" text-anchor="end" class="label">Bumble</text>
<rect x="200" y="146" width="270" height="28" fill="#ecf0f1" rx="3"/>
<rect x="200" y="146" width="180" height="28" fill="#e67e22" rx="3"/>
<text x="386" y="165" class="label" font-weight="600" fill="#e67e22">8/12</text>
<text x="192" y="203" text-anchor="end" class="label">Hinge (limited likes)</text>
<rect x="200" y="184" width="270" height="28" fill="#ecf0f1" rx="3"/>
<rect x="200" y="184" width="157" height="28" fill="#e67e22" rx="3"/>
<text x="363" y="203" class="label" font-weight="600" fill="#e67e22">7/12</text>
<text x="192" y="241" text-anchor="end" class="label">Coffee Meets Bagel</text>
<rect x="200" y="222" width="270" height="28" fill="#ecf0f1" rx="3"/>
<rect x="200" y="222" width="135" height="28" fill="#e67e22" rx="3"/>
<text x="341" y="241" class="label" font-weight="600" fill="#e67e22">6/12</text>
<text x="192" y="279" text-anchor="end" class="label">Thursday (1-day access)</text>
<rect x="200" y="260" width="270" height="28" fill="#ecf0f1" rx="3"/>
<rect x="200" y="260" width="90" height="28" fill="#27ae60" rx="3"/>
<text x="296" y="279" class="label" font-weight="600" fill="#27ae60">4/12</text>
<text x="16" y="330" class="subtitle">Void Framework — Paper 13 — moreright.xyz</text>
</svg>